# xmcd CD database file
#
# Track frame offsets:
#	150
#	20070
#	35827
#
# Disc length: 689 seconds
#
# Revision: 0
# Processed by: cddbd v1.5.1PL0 Copyright (c) Steve Scherf et al.
# Submitted via: CDex 1.51
#
DISCID=2302af03
DTITLE=NEWS - チェリッシュ
DYEAR=2005
DGENRE=JPop
TTITLE0=チェリッシュ
TTITLE1=Party Time
TTITLE2=Devil or Angel
EXTD=YEAR: 2005
EXTT0=
EXTT1=
EXTT2=
PLAYORDER=
